<svg viewBox="0 0 24 24" fill="none" xmlns="http://www.w3.org/2000/svg">
  <path d="M1.175 12.225c-.015.128 0 .225.111.225.111 0 .198-.097.213-.225l.315-2.7-.315-2.8c-.015-.128-.102-.225-.213-.225-.111 0-.196.097-.211.225L.752 9.525l.423 2.7zm1.8 1.35c-.015.113 0 .2.108.2.108 0 .193-.087.208-.2l.375-4.05-.375-4.0c-.015-.113-.1-.2-.208-.2-.108 0-.193.087-.208.2l-.333 4L2.933 13.575h.042zm1.8.825c-.015.098 0 .175.105.175.105 0 .188-.077.203-.175l.412-5.4-.412-4.425c-.015-.098-.098-.175-.203-.175-.105 0-.188.077-.203.175l-.368 4.425.368 5.4zm1.8.3c-.015.083 0 .15.098.15.098 0 .175-.067.19-.15l.45-5.7-.45-4.35c-.015-.083-.092-.15-.19-.15-.098 0-.175.067-.19.15l-.398 4.35.398 5.7zm1.8.15c-.015.068 0 .125.09.125.09 0 .163-.057.178-.125l.487-5.85-.487-4.275c-.015-.068-.088-.125-.178-.125-.09 0-.163.057-.178.125l-.43 4.275.43 5.85zm1.8.045c0 .052.037.09.082.09.045 0 .083-.038.098-.09l.525-5.895-.525-4.2c-.015-.052-.053-.09-.098-.09-.045 0-.082.038-.082.09l-.465 4.2.465 5.895zm1.8-.015c0 .038.03.068.068.068.038 0 .075-.03.09-.068l.562-5.88-.562-4.14c-.015-.038-.052-.068-.09-.068-.038 0-.068.03-.068.068l-.495 4.14.495 5.88zm1.8-.03c0 .023.022.045.045.045.023 0 .045-.022.06-.045l.6-5.85-.6-4.08c-.015-.023-.037-.045-.06-.045-.023 0-.045.022-.045.045l-.525 4.08.525 5.85zm2.85.825c-.15 0-.285-.06-.39-.15-.075-3.3-2.85-6-6.315-6-.45 0-.9.075-1.35.21v10.125c.015.12.098.21.21.21h7.845c.787 0 1.425-.637 1.425-1.425v-.57c0-.787-.638-1.425-1.425-1.425v.025z" fill="#FF5500"/>
</svg>
